<svg width="1100" height="300" viewBox="0 0 1100 300" xmlns="http://www.w3.org/2000/svg" role="img" aria-label="Jenga architecture principle">
  <defs>
    <linearGradient id="bg" x1="0" y1="0" x2="1" y2="1">
      <stop offset="0%" stop-color="#0d1117"/>
      <stop offset="100%" stop-color="#111827"/>
    </linearGradient>
    <linearGradient id="line" x1="0" y1="0" x2="1" y2="0">
      <stop offset="0%" stop-color="#a78bfa"/>
      <stop offset="50%" stop-color="#22d3ee"/>
      <stop offset="100%" stop-color="#34d399"/>
    </linearGradient>
  </defs>

  <rect x="6" y="6" width="1088" height="288" rx="18" fill="url(#bg)" stroke="url(#line)" stroke-width="2"/>
  <text x="24" y="46" font-family="'Fira Code', monospace" font-size="30" fill="#a78bfa">Jenga Principle for Software Design</text>
  <text x="24" y="82" font-family="'Fira Code', monospace" font-size="18" fill="#22d3ee">Strong systems are made of replaceable blocks, not brittle chains.</text>

  <g>
    <rect x="70" y="214" width="148" height="22" rx="4" fill="#34d399"/>
    <rect x="228" y="214" width="148" height="22" rx="4" fill="#a78bfa"/>
    <rect x="386" y="214" width="148" height="22" rx="4" fill="#22d3ee"/>

    <rect x="149" y="188" width="148" height="22" rx="4" fill="#22d3ee"/>
    <rect x="307" y="188" width="148" height="22" rx="4" fill="#34d399"/>
    <rect x="465" y="188" width="148" height="22" rx="4" fill="#a78bfa"/>

    <rect x="228" y="162" width="148" height="22" rx="4" fill="#a78bfa"/>
    <rect x="386" y="162" width="148" height="22" rx="4" fill="#22d3ee"/>
    <rect x="544" y="162" width="148" height="22" rx="4" fill="#34d399"/>
  </g>

  <text x="730" y="172" font-family="'Fira Code', monospace" font-size="20" fill="#e6edf3">Layer Contracts</text>
  <text x="730" y="202" font-family="'Fira Code', monospace" font-size="20" fill="#e6edf3">Low Coupling</text>
  <text x="730" y="232" font-family="'Fira Code', monospace" font-size="20" fill="#e6edf3">Safe Refactors</text>
  <text x="730" y="262" font-family="'Fira Code', monospace" font-size="20" fill="#e6edf3">Fault Isolation</text>
</svg>
